# xmcd
#
# Track frame offsets: 
#        150
#        15472
#        32830
#        54548
#        74089
#        98931
#        112556
#        131730
#        153688
#        174845
#        192984
#        209638
#        225335
#
# Disc length: 3304 seconds
#
# Revision: 0
# Processed by: cddbd v1.5.1PL2 Copyright (c) Steve Scherf et al.
# Submitted via: ExactAudioCopy v0.95b3
#
DISCID=ae0ce60d
DTITLE=Telma Tavares - Telma Tavares
DYEAR=2002
DGENRE=Samba
TTITLE0=Vai Vadiar
TTITLE1=Quebradeira de Coco
TTITLE2=Perfume Francês
TTITLE3=O Amor é assim
TTITLE4=Zelão
TTITLE5=Babalobare
TTITLE6=Pergunte ao Criador
TTITLE7=Extra
TTITLE8=Alta Madrugada
TTITLE9=Nova Ilusão
TTITLE10=Iabassê
TTITLE11=Dois Cardumes
TTITLE12=Ser em extinção
EXTD=
EXTT0=
EXTT1=
EXTT2=
EXTT3=
EXTT4=
EXTT5=
EXTT6=
EXTT7=
EXTT8=
EXTT9=
EXTT10=
EXTT11=
EXTT12=
PLAYORDER=
